<?xml version="1.0" encoding="UTF-8" standalone="no"?>
<!-- Created with Inkscape (http://www.inkscape.org/) -->

<svg
   xmlns:osb="http://www.openswatchbook.org/uri/2009/osb"
   xmlns:dc="http://purl.org/dc/elements/1.1/"
   xmlns:cc="http://creativecommons.org/ns#"
   xmlns:rdf="http://www.w3.org/1999/02/22-rdf-syntax-ns#"
   xmlns:svg="http://www.w3.org/2000/svg"
   xmlns="http://www.w3.org/2000/svg"
   xmlns:sodipodi="http://sodipodi.sourceforge.net/DTD/sodipodi-0.dtd"
   xmlns:inkscape="http://www.inkscape.org/namespaces/inkscape"
   width="256"
   height="256"
   id="svg3070"
   version="1.1"
   inkscape:version="0.48.4 r9939"
   sodipodi:docname="evo-cloud.svg"
   inkscape:export-filename="/home/yisui/Pictures/evo-cloud.png"
   inkscape:export-xdpi="92.773506"
   inkscape:export-ydpi="92.773506">
  <defs
     id="defs3072">
    <linearGradient
       id="linearGradient5336"
       osb:paint="solid">
      <stop
         style="stop-color:#ffff00;stop-opacity:1;"
         offset="0"
         id="stop5338" />
    </linearGradient>
    <linearGradient
       id="linearGradient3882"
       osb:paint="solid">
      <stop
         style="stop-color:#404040;stop-opacity:1;"
         offset="0"
         id="stop3884" />
    </linearGradient>
  </defs>
  <sodipodi:namedview
     id="base"
     pagecolor="#ffffff"
     bordercolor="#666666"
     borderopacity="1.0"
     inkscape:pageopacity="0.0"
     inkscape:pageshadow="2"
     inkscape:zoom="2.75"
     inkscape:cx="190.51446"
     inkscape:cy="146.7143"
     inkscape:current-layer="layer3"
     showgrid="true"
     inkscape:document-units="px"
     inkscape:grid-bbox="true"
     inkscape:window-width="1920"
     inkscape:window-height="1176"
     inkscape:window-x="0"
     inkscape:window-y="24"
     inkscape:window-maximized="1"
     inkscape:snap-global="false">
    <inkscape:grid
       type="xygrid"
       id="grid3824"
       empspacing="5"
       visible="true"
       enabled="true"
       snapvisiblegridlinesonly="true" />
  </sodipodi:namedview>
  <metadata
     id="metadata3075">
    <rdf:RDF>
      <cc:Work
         rdf:about="">
        <dc:format>image/svg+xml</dc:format>
        <dc:type
           rdf:resource="http://purl.org/dc/dcmitype/StillImage" />
        <dc:title></dc:title>
      </cc:Work>
    </rdf:RDF>
  </metadata>
  <g
     inkscape:groupmode="layer"
     id="layer3"
     inkscape:label="Layer"
     transform="translate(0,192)"
     style="display:inline">
    <path
       inkscape:connector-curvature="0"
       d="m 39.528382,50.768816 162.781368,0 c 26.96066,0 48.83441,-27.154331 48.83441,-60.623621 0,-26.483674 -13.76672,-48.783066 -32.84267,-57.032302 0.0321,-1.223204 0.28642,-2.367477 0.28642,-3.591312 0,-44.638551 -29.15414,-80.831481 -65.11255,-80.831481 l -1e-5,4e-5 c -21.96608,1.83785 -39.33244,14.88835 -45.79985,27.72173 l 7.41776,14.89635 c 9.61506,-15.21554 22.94832,-21.37178 38.38208,-22.41019 26.73837,0 48.51648,26.79942 48.83441,59.874026 -0.12716,1.223834 -0.2228,2.447042 -0.25433,3.710039 l -0.41355,14.840154 11.31839,4.894094 c 13.09933,5.663258 21.9058,20.918305 21.9058,37.928913 0,22.300018 -14.59335,40.415749 -32.55628,40.415749 l -162.781407,0 c -5.033271,0 -9.63494,-11.017811 -18.296698,-9.01341 -7.169095,-0.294213 -6.065657,28.774669 18.296698,29.221221 z"
       id="path3051"
       sodipodi:nodetypes="csscscccccccccssscc"
       style="fill:#404040;fill-opacity:1;fill-rule:nonzero;display:inline" />
    <rect
       style="fill:#808080;fill-opacity:1;stroke:#404040;stroke-width:6.43641949;stroke-linejoin:round;stroke-miterlimit:4;stroke-opacity:1;stroke-dasharray:none;display:inline"
       id="rect3848"
       width="48.738644"
       height="48.738644"
       x="99.727013"
       y="-35.838978" />
    <rect
       style="fill:#80d8ff;fill-opacity:1;stroke:#404040;stroke-width:6.43641949;stroke-linejoin:round;stroke-miterlimit:4;stroke-opacity:1;stroke-dasharray:none;display:inline"
       id="rect3848-5"
       width="48.738644"
       height="48.738644"
       x="34.300701"
       y="-35.309204" />
    <rect
       style="fill:#ffff00;fill-opacity:1;stroke:#000000;stroke-width:6.43641949;stroke-linejoin:round;stroke-miterlimit:4;stroke-opacity:1;stroke-dasharray:none;display:inline"
       id="rect3848-3"
       width="48.738644"
       height="48.738644"
       x="53.932076"
       y="-77.351318"
       transform="matrix(0.87144018,-0.4905018,0.4905018,0.87144018,0,0)" />
    <rect
       style="fill:#d4d4d4;fill-opacity:1;stroke:#404040;stroke-width:6.43641949;stroke-linejoin:round;stroke-miterlimit:4;stroke-opacity:1;stroke-dasharray:none;display:inline"
       id="rect3848-56"
       width="48.738644"
       height="48.738644"
       x="99.727036"
       y="-100.20576" />
    <path
       style="fill:#808080;fill-opacity:1;stroke:none;display:inline"
       d="m 32.451319,-141.11876 -29.6539328,-12.57883 0,-34.79252 29.9750948,12.73942 0,17.82447 -18.680909,-8.1361 0,-5.13858 14.077591,5.88796 0,-7.17261 -20.5543517,-8.40373 0,23.87302 22.9630647,9.68838 11.615345,-19.75145 -9.260155,-3.69336 5.566804,-2.83693 10.598331,4.28216 z"
       id="path3782"
       inkscape:connector-curvature="0"
       sodipodi:nodetypes="ccccccccccccccccc" />
  </g>
</svg>
